<?xml version="1.0" encoding="utf-8"?>
<!-- Generator: Adobe Illustrator 26.3.1, SVG Export Plug-In . SVG Version: 6.00 Build 0)  -->
<svg version="1.1" id="Layer_2_00000128487511089095008960000005728117826044069030_"
	 xmlns="http://www.w3.org/2000/svg" xmlns:xlink="http://www.w3.org/1999/xlink" x="0px" y="0px" viewBox="0 0 234.4 95.2"
	 style="enable-background:new 0 0 234.4 95.2;" xml:space="preserve">
<style type="text/css">
	.st0{fill:#FFFFFF;}
</style>
<g>
	<path class="st0" d="M71.9,40.8c1.3,0,2.4-1.1,2.4-2.4S73.2,36,71.9,36c-0.2,0-0.4,0-0.5,0.1l-1.7-3c0.4-0.4,0.7-1,0.7-1.7
		c0-1.3-1.1-2.4-2.4-2.4c-1.1,0-2,0.7-2.3,1.6H62c-0.3-1-1.2-1.6-2.3-1.6c-1.3,0-2.4,1.1-2.4,2.4c0,0.5,0.2,1,0.5,1.4L55.7,36
		c-0.1,0-0.2,0-0.4,0c-1.3,0-2.4,1.1-2.4,2.4s1.1,2.4,2.4,2.4c0.2,0,0.5,0,0.7-0.1l1.9,3.3c-0.4,0.4-0.6,1-0.6,1.6
		c0,0.6,0.2,1.1,0.5,1.5l-2,3.1c-0.2,0-0.4-0.1-0.6-0.1c-1.3,0-2.4,1.1-2.4,2.4s1.1,2.4,2.4,2.4c0.2,0,0.4,0,0.6-0.1l2,3.1
		c-0.3,0.4-0.5,0.9-0.5,1.5c0,1.3,1.1,2.4,2.4,2.4c1.1,0,2-0.7,2.3-1.6h3.7c0.3,1,1.2,1.6,2.3,1.6c1.3,0,2.4-1.1,2.4-2.4
		c0-0.6-0.3-1.2-0.7-1.6l1.7-2.9c0.2,0,0.4,0.1,0.6,0.1c1.3,0,2.4-1.1,2.4-2.4s-1.1-2.4-2.4-2.4c-0.2,0-0.4,0-0.6,0.1l-1.7-2.9
		c0.4-0.4,0.7-1,0.7-1.6c0-0.6-0.2-1.1-0.6-1.6l1.7-3.3C71.6,40.8,71.7,40.8,71.9,40.8z M67.9,43.2c-1.1,0-2,0.7-2.3,1.7H62
		c-0.3-1-1.2-1.7-2.3-1.7c-0.2,0-0.3,0-0.5,0.1l-2-3.4c0.3-0.4,0.5-0.9,0.5-1.4c0-0.6-0.3-1.2-0.7-1.6l2-3c0.2,0.1,0.4,0.1,0.6,0.1
		c1.1,0,2-0.7,2.3-1.7h3.7c0.3,1,1.2,1.7,2.3,1.7c0.2,0,0.3,0,0.5,0l1.7,3.1c-0.4,0.4-0.6,1-0.6,1.6c0,0.6,0.2,1.2,0.6,1.6l-1.7,3.2
		C68.2,43.2,68.1,43.2,67.9,43.2z M70.1,54.1l-1.7,3c-0.2,0-0.3,0-0.5,0c-1.1,0-2,0.7-2.3,1.7H62c-0.3-1-1.2-1.7-2.3-1.7
		c-0.2,0-0.4,0-0.6,0.1l-2-3.1c0.3-0.4,0.5-0.9,0.5-1.5c0-0.6-0.2-1.1-0.5-1.5l2-3.1c0.2,0,0.4,0.1,0.5,0.1c1.1,0,2-0.7,2.3-1.6h3.7
		c0.3,1,1.2,1.6,2.3,1.6c0.2,0,0.3,0,0.5,0l1.7,3c-0.4,0.4-0.6,1-0.6,1.6S69.7,53.7,70.1,54.1z"/>
	<polygon class="st0" points="113.6,29.2 117.2,34 117.9,34 121.5,29.1 121.5,36.9 122.9,36.9 122.9,26.1 121.7,26.1 117.6,32 
		113.4,26.1 112.2,26.1 112.2,37 113.6,37 	"/>
	<polygon class="st0" points="121.5,47.7 121.5,55.5 122.9,55.5 122.9,44.7 121.7,44.7 117.6,50.6 113.4,44.7 112.2,44.7 
		112.2,55.7 113.6,55.7 113.6,47.8 117.2,52.6 117.9,52.6 	"/>
	<path class="st0" d="M128.9,36.4c0.9,0.5,1.9,0.7,3,0.7c1,0,2-0.2,2.9-0.7s1.6-1.2,2.1-2s0.7-1.7,0.7-2.8c0-1-0.2-1.9-0.7-2.8
		c-0.5-0.9-1.2-1.5-2.1-2c-0.8-0.5-1.8-0.7-2.9-0.7c-1.1,0-2.1,0.2-3,0.7c-0.9,0.5-1.6,1.2-2.1,2c-0.6,0.8-0.8,1.8-0.8,2.8
		s0.3,2,0.8,2.8C127.3,35.3,128,35.9,128.9,36.4z M128.2,29.5c0.3-0.6,0.9-1.1,1.5-1.5c0.7-0.3,1.5-0.5,2.2-0.5s1.5,0.1,2.1,0.5
		c0.6,0.4,1.1,0.9,1.5,1.5c0.3,0.6,0.5,1.3,0.5,2.1c0,0.8-0.1,1.5-0.5,2.1c-0.4,0.6-0.9,1.1-1.5,1.5c-0.6,0.3-1.3,0.5-2.1,0.5
		c-0.8,0-1.6-0.1-2.2-0.5c-0.6-0.4-1.1-0.9-1.5-1.5c-0.4-0.6-0.6-1.3-0.6-2.1C127.6,30.8,127.8,30.1,128.2,29.5z"/>
	<polygon class="st0" points="148.5,35.7 142.6,35.7 142.6,26.2 141.1,26.2 141.1,37 148.5,37 	"/>
	<polygon class="st0" points="159.9,35.7 159.9,35.6 153.6,35.6 153.6,32.1 159,32.1 159,30.8 153.6,30.8 153.6,27.5 159.7,27.5 
		159.7,26.2 152,26.2 152,37 159.9,37 	"/>
	<path class="st0" d="M165.7,36.4c0.9,0.5,1.9,0.8,2.9,0.7c0.8,0,1.6-0.1,2.3-0.4c0.7-0.3,1.3-0.7,1.8-1.3l-1-1
		c-0.9,0.9-1.9,1.3-3.1,1.3c-0.8,0-1.5-0.1-2.2-0.5c-0.6-0.4-1.1-0.9-1.5-1.5c-0.4-0.6-0.6-1.3-0.6-2.1c0-0.8,0.2-1.5,0.6-2.1
		c0.3-0.6,0.8-1.1,1.5-1.5c0.7-0.3,1.4-0.5,2.2-0.5c1.3,0,2.3,0.4,3.1,1.3l1-1c-0.5-0.6-1.1-1-1.8-1.3c-0.7-0.3-1.5-0.4-2.3-0.4
		c-1,0-2,0.2-2.9,0.7c-0.9,0.5-1.6,1.2-2.1,2c-0.5,0.8-0.7,1.7-0.7,2.8c0,1,0.2,2,0.7,2.8C164.1,35.3,164.8,35.9,165.7,36.4z"/>
	<path class="st0" d="M185,32.3v-6.2h-1.5v6.1c0,1.2-0.3,2-0.8,2.6c-0.5,0.6-1.3,0.9-2.3,0.9c-2.1,0-3.1-1.2-3.1-3.5v-6.1h-1.5v6.2
		c0,1.6,0.4,2.8,1.2,3.6s1.9,1.3,3.4,1.2c1.5,0,2.6-0.4,3.4-1.2C184.6,35.1,185,33.9,185,32.3z"/>
	<polygon class="st0" points="196.1,35.7 190.2,35.7 190.2,26.2 188.7,26.2 188.7,37 196.1,37 	"/>
	<polygon class="st0" points="207.3,35.7 207.3,35.6 201,35.6 201,32.1 206.4,32.1 206.4,30.8 201,30.8 201,27.5 207.1,27.5 
		207.1,26.2 199.4,26.2 199.4,37 207.3,37 	"/>
	<path class="st0" d="M136,55.8h1.7l-5.2-11.4h-1.6l-5.2,11.4h1.7l1.3-2.8h6L136,55.8z M129.1,51.7l2.5-5.6l2.5,5.6H129.1z"/>
	<polygon class="st0" points="149.9,44.3 148,44.3 141.7,50.8 141.7,44.3 140,44.3 140,55.8 141.7,55.8 141.7,52.8 143.8,50.7 
		148.4,55.9 150.3,55.9 145,49.5 	"/>
	<polygon class="st0" points="160.7,54.4 154,54.4 154,50.7 159.8,50.7 159.8,49.3 154,49.3 154,45.7 160.5,45.7 160.5,44.3 
		152.3,44.3 152.3,55.8 160.7,55.8 	"/>
	<path class="st0" d="M171.5,55.9v-0.1h1.7l-2.7-3.8c0.8-0.2,1.5-0.7,1.9-1.3c0.5-0.6,0.7-1.3,0.7-2.2c0-1.2-0.5-2.2-1.3-2.9
		c-0.9-0.7-2-1.1-3.5-1.1h-4.4v11.4h1.6v-3.5h2.8c0.2,0,0.4,0,0.7,0L171.5,55.9z M168.2,51h-2.8v-5.1h2.8c1.1,0,1.9,0.3,2.4,0.7
		c0.5,0.4,0.8,1.1,0.8,1.9s-0.3,1.5-0.8,1.9C170.1,50.8,169.3,51,168.2,51z"/>
	<polygon class="st0" points="181.6,44.5 181.6,55.9 189.8,55.9 189.8,54.4 183.3,54.4 183.3,44.5 	"/>
	<path class="st0" d="M196.4,44.4l-5.2,11.4h1.7l1.3-2.8h6l1.3,2.8h1.7L198,44.4H196.4z M194.7,51.7l2.5-5.6l2.5,5.6H194.7z"/>
	<path class="st0" d="M214.9,51c-0.3-0.5-0.9-0.8-1.4-1c0.5-0.2,0.8-0.6,1.1-1c0.3-0.4,0.4-0.9,0.4-1.5c0-1-0.4-1.7-1.1-2.2
		s-1.7-0.8-3-0.8h-5.1v11.4h5.4c1.4,0,2.5-0.3,3.2-0.8c0.7-0.6,1.1-1.3,1.1-2.3C215.5,52.1,215.3,51.5,214.9,51z M207.4,45.8v-0.2
		h3.3c0.8,0,1.4,0.1,1.9,0.5c0.5,0.4,0.7,0.8,0.7,1.4c0,0.6-0.3,1.1-0.7,1.4c-0.4,0.3-1.1,0.5-1.9,0.5h-3.3V45.8z M213.2,54.1
		c-0.5,0.3-1.2,0.5-2.1,0.5h-3.7v-3.8h3.7c1.9,0,2.8,0.6,2.8,1.9C213.9,53.3,213.7,53.8,213.2,54.1z"/>
	<rect x="112.2" y="62.6" class="st0" width="1.7" height="11.9"/>
	<polygon class="st0" points="125.6,71.5 118.8,62.6 117.5,62.6 117.5,74.5 119.1,74.5 119.1,65.6 125.9,74.5 127.2,74.5 
		127.2,62.6 125.6,62.6 	"/>
	<path class="st0" d="M137.1,68.7c-0.6-0.2-1.3-0.4-2.2-0.6c-0.6-0.2-1.2-0.4-1.6-0.5c-0.4-0.1-0.7-0.3-1-0.6
		c-0.3-0.3-0.4-0.6-0.4-1c0-0.6,0.2-1.1,0.7-1.4c0.5-0.3,1.2-0.5,2.2-0.5c0.6,0,1.1,0,1.7,0.2c0.6,0.1,1.1,0.4,1.6,0.7l0.6-1.4
		c-0.5-0.4-1.1-0.6-1.8-0.8c-0.7-0.2-1.4-0.3-2.1-0.3c-1,0-1.8,0.2-2.5,0.5c-0.7,0.3-1.2,0.7-1.5,1.2c-0.3,0.5-0.5,1.1-0.5,1.7
		c0,0.7,0.2,1.3,0.6,1.8c0.4,0.5,0.8,0.8,1.4,1c0.6,0.2,1.3,0.4,2.2,0.6c0.8,0.2,1.3,0.4,1.7,0.5c0.4,0.1,0.7,0.3,1,0.6
		c0.3,0.3,0.4,0.6,0.4,1c0,0.5-0.2,1-0.7,1.3s-1.2,0.5-2.2,0.5c-0.8,0-1.5-0.1-2.2-0.4c-0.7-0.3-1.2-0.6-1.7-1l-0.6,1.3
		c0.5,0.5,1.2,0.8,2,1.1s1.7,0.4,2.2,0.7c1.1,0,1.9-0.2,2.6-0.5s1.3-0.7,1.6-1.2c0.3-0.5,0.5-1.1,0.5-1.7c0-0.8-0.2-1.4-0.6-1.8
		C138.1,69.2,137.6,68.9,137.1,68.7z"/>
	<polygon class="st0" points="140.4,64.1 144.5,64.1 144.5,74.6 146.2,74.6 146.2,64.1 150.3,64.1 150.3,62.6 140.4,62.6 	"/>
	<rect x="152.5" y="62.6" class="st0" width="1.7" height="11.9"/>
	<polygon class="st0" points="156.9,64.1 161,64.1 161,74.6 162.7,74.6 162.7,64.1 166.8,64.1 166.8,62.6 156.9,62.6 	"/>
	<path class="st0" d="M177,69.3c0,1.3-0.3,2.3-0.8,2.9c-0.6,0.6-1.4,0.9-2.4,0.9c-2.1,0-3.2-1.2-3.2-3.8v-6.7H169v6.8
		c0,1.7,0.5,3,1.3,3.9c0.9,0.9,2.1,1.3,3.5,1.4c1.5,0,2.6-0.5,3.5-1.4c0.9-0.9,1.3-2.2,1.3-3.9v-6.8H177V69.3z"/>
	<polygon class="st0" points="180.8,64.1 184.9,64.1 184.9,74.6 186.6,74.6 186.6,64.1 190.7,64.1 190.7,62.6 180.8,62.6 	"/>
	<polygon class="st0" points="194.9,69.2 200.9,69.2 200.9,67.8 194.9,67.8 194.9,64.1 201.6,64.1 201.6,62.6 193.2,62.6 
		193.2,74.5 201.9,74.5 201.9,73 194.9,73 	"/>
	<path class="st0" d="M83.6,32.8c0.9-2.9,0.9-6.2,0-9.4c-1.7-7.2-6.3-11.4-12.6-11.5c-0.2,0-0.5-0.1-0.6-0.2l0,0l0,0
		c0,0,0-0.2,0-0.3c0-1.9-1-3.8-2.5-4.9c-1.4-1.1-3.2-1.6-5.2-1.6c-0.7,0-1.4,0.1-2.1,0.2c-1.4-1.5-4.4-4.3-8.2-4.3
		c-0.1,0-0.2,0-0.4,0c-3,0.2-4.8,1.2-6,2.2c-1.1-1-3-2-6-2.2c-0.1,0-0.3,0-0.4,0c-4,0-7.2,3-8.4,4.5C30.7,5.1,30.1,5,29.5,5
		c-2,0-3.8,0.6-5.1,1.6c-1.6,1.3-2.5,3-2.5,4.9c0,0.1,0,0.2,0,0.3c-0.2,0.1-0.6,0.2-0.7,0.3c-0.1,0-0.1,0-0.2,0
		c-6.1,0.3-10.6,4.4-12.4,11.5c-0.8,3.2-0.8,6.4,0,9.4c-1,1.8-1.8,3.8-2.3,5.9c-1.8,7.6,0.1,15,4.9,18.6c-0.1,1.3-0.1,3.5,0.2,5.1
		c1,5,2.5,8.1,7.4,10.6c-0.4,3.5,0.4,6.9,2.4,9.4c1.2,1.5,2.7,2.5,4.3,2.8c1.2,4.2,6.3,8.7,12.1,8.7h0.2c4.1-0.1,6.8-2,8.2-3.3
		c1.5,1.4,4.2,3.2,8.1,3.3l0.2,0c5.9,0,11-4.5,12.2-8.8c1.5-0.4,3-1.3,4.1-2.8c2-2.4,2.9-5.9,2.4-9.5c5.1-2.6,6.7-5.8,7.7-10.8
		c0.2-1.2,0.3-2.9,0.2-5.1c4.8-3.6,6.8-11.1,4.9-18.6C85.4,36.6,84.6,34.6,83.6,32.8z M79.2,56.1l-0.3,0.2v0.3
		c0,0.1,0.3,3.5-0.1,5.4c-1,4.9-2.4,7.5-7.5,9.8L70.9,72v0.4c0.7,3.3,0.1,6.7-1.8,9c-1.1,1.4-2.5,2.2-4,2.2h-0.5l0.1,0.5
		c0,0.1,0,0.1,0,0.2c0,0.1,0,0.2,0,0.3c0,0.2-0.1,0.4-0.2,0.7c0,0.1-0.1,0.2-0.1,0.2c-0.1,0.2-0.1,0.3-0.2,0.5
		c0,0.1-0.1,0.2-0.1,0.3c-0.1,0.1-0.1,0.3-0.2,0.4c-0.1,0.1-0.1,0.2-0.2,0.3c-0.1,0.1-0.2,0.3-0.2,0.4c-0.1,0.1-0.2,0.2-0.2,0.3
		c-0.1,0.1-0.2,0.2-0.3,0.4c-0.1,0.1-0.2,0.2-0.3,0.3c-0.1,0.1-0.2,0.2-0.3,0.3c-0.1,0.1-0.2,0.2-0.3,0.3c-0.1,0.1-0.2,0.2-0.3,0.3
		c-0.1,0.1-0.2,0.2-0.3,0.3c-0.1,0.1-0.2,0.2-0.4,0.3c-0.1,0.1-0.2,0.2-0.3,0.3c-0.1,0.1-0.3,0.2-0.4,0.3c-0.1,0.1-0.2,0.2-0.4,0.2
		c-0.1,0.1-0.3,0.2-0.4,0.2c-0.1,0.1-0.3,0.1-0.4,0.2c-0.1,0.1-0.3,0.1-0.4,0.2c-0.1,0.1-0.3,0.1-0.4,0.2c-0.1,0.1-0.3,0.1-0.4,0.2
		c-0.1,0.1-0.3,0.1-0.4,0.1c-0.2,0.1-0.3,0.1-0.5,0.1c-0.1,0-0.3,0.1-0.4,0.1c-0.2,0-0.3,0.1-0.5,0.1c-0.1,0-0.3,0-0.4,0.1
		c-0.2,0-0.3,0-0.5,0.1c-0.1,0-0.3,0-0.4,0c-0.2,0-0.4,0-0.6,0c-4.6-0.1-7.2-3.1-7.7-3.7V5.4c0.3-0.5,1.7-2.5,5.6-2.7
		c0.2,0,0.4,0,0.6,0c0.1,0,0.3,0,0.4,0c0.1,0,0.3,0,0.4,0.1c0.1,0,0.2,0,0.4,0.1c0.1,0,0.3,0.1,0.4,0.1c0.1,0,0.2,0.1,0.3,0.1
		c0.1,0,0.3,0.1,0.4,0.1c0.1,0,0.2,0.1,0.3,0.1c0.1,0.1,0.2,0.1,0.4,0.2c0.1,0.1,0.2,0.1,0.3,0.2c0.1,0.1,0.2,0.1,0.3,0.2
		C56.3,3.9,56.4,4,56.5,4c0.1,0.1,0.2,0.1,0.3,0.2c0.1,0.1,0.2,0.1,0.3,0.2c0.1,0.1,0.2,0.2,0.3,0.2c0.1,0.1,0.2,0.1,0.2,0.2
		c0.1,0.1,0.2,0.2,0.3,0.2c0.1,0.1,0.1,0.1,0.2,0.2c0.1,0.1,0.2,0.2,0.2,0.2c0.1,0.1,0.1,0.1,0.2,0.2c0.1,0.1,0.1,0.2,0.2,0.2
		c0,0.1,0.1,0.1,0.1,0.2C59,6.1,59,6.2,59.1,6.3c0,0,0.1,0.1,0.1,0.1c0.1,0.1,0.1,0.1,0.2,0.2c0,0,0.1,0.1,0.1,0.1
		c0,0.1,0.1,0.1,0.1,0.1c0,0,0,0.1,0.1,0.1c0,0,0.1,0.1,0.1,0.1c0,0,0,0,0,0c0,0,0,0,0,0L60,7.4L60.6,7c0.3-0.1,0.7-0.1,1-0.2
		c0.1,0,0.2,0,0.3,0c0.2,0,0.4,0,0.7,0c0.1,0,0.2,0,0.3,0c0.3,0,0.5,0,0.8,0.1c0.1,0,0.1,0,0.2,0c0.3,0,0.6,0.1,0.9,0.2
		c0.1,0,0.1,0,0.2,0.1c0.2,0.1,0.5,0.2,0.7,0.3c0.1,0,0.2,0.1,0.2,0.1c0.3,0.1,0.5,0.3,0.8,0.5c1.1,0.8,1.7,2.1,1.7,3.3
		c0,0.1,0,1,0.5,1.6c0.7,0.9,2,1,2.1,1c5.4,0.1,9.2,3.7,10.7,10c0.8,3.1,0.7,6.3-0.2,8.9L81.4,33l0.1,0.2c1.1,1.8,1.9,3.8,2.4,6
		C85.7,46.3,83.7,53.2,79.2,56.1z M45.4,88.8C45.4,88.8,45.4,88.8,45.4,88.8c-0.1,0.1-0.1,0.1-0.2,0.2c0,0-0.1,0.1-0.1,0.1
		c0,0-0.1,0.1-0.1,0.1c0,0-0.1,0.1-0.1,0.1c0,0-0.1,0.1-0.1,0.1c-0.1,0.1-0.1,0.1-0.2,0.2c0,0-0.1,0.1-0.1,0.1
		c-0.1,0.1-0.1,0.1-0.2,0.2c0,0-0.1,0.1-0.2,0.1c-0.1,0.1-0.2,0.1-0.2,0.2c-0.1,0-0.1,0.1-0.2,0.1c-0.1,0.1-0.2,0.1-0.3,0.2
		c-0.1,0-0.1,0.1-0.2,0.1c-0.1,0.1-0.2,0.1-0.3,0.2c-0.1,0-0.1,0.1-0.2,0.1c-0.1,0.1-0.2,0.1-0.3,0.2c-0.1,0-0.1,0.1-0.2,0.1
		c-0.1,0.1-0.2,0.1-0.4,0.2c-0.1,0-0.2,0.1-0.2,0.1c-0.1,0-0.3,0.1-0.4,0.1c-0.1,0-0.2,0.1-0.3,0.1c-0.1,0-0.3,0.1-0.4,0.1
		c-0.1,0-0.2,0.1-0.3,0.1c-0.1,0-0.3,0.1-0.5,0.1c-0.1,0-0.2,0-0.3,0.1c-0.2,0-0.3,0.1-0.5,0.1c-0.1,0-0.2,0-0.3,0
		c-0.3,0-0.5,0-0.8,0c-0.1,0-0.1,0-0.2,0c-4.9,0-9.5-4.1-10.3-7.6c0-0.1,0-0.2,0-0.3c0-0.1,0-0.1,0-0.2v-0.5h-0.6
		c-1.5,0-2.9-0.8-4-2.2c-1.8-2.3-2.5-5.6-1.8-9l0.3-0.2L20.9,72c-5.2-2.3-6.5-4.9-7.5-9.8c-0.4-1.9-0.1-5.4-0.1-5.4v-0.3L13,56.3
		c-4.5-2.9-6.4-9.8-4.7-16.9c0.5-2.2,1.3-4.2,2.4-6l0.1-0.2L10.7,33c-0.9-2.7-1-5.8-0.2-8.9c1.6-6.3,5.4-9.9,10.8-10
		c0.1-0.1,1.4-0.2,2.1-1c0.5-0.6,0.5-1.5,0.5-1.6c0-1.2,0.6-2.4,1.7-3.3C26.6,7.4,28,7,29.5,7c0.7,0,1.4,0.1,2.2,0.3L32,7.4l0.3-0.3
		c0,0,0,0,0,0c0,0,0,0,0,0c0,0,0-0.1,0.1-0.1c0,0,0-0.1,0.1-0.1c0,0,0.1-0.1,0.1-0.1c0,0,0.1-0.1,0.1-0.1c0-0.1,0.1-0.1,0.1-0.2
		c0,0,0.1-0.1,0.1-0.1c0.1-0.1,0.1-0.1,0.2-0.2c0-0.1,0.1-0.1,0.2-0.2c0.1-0.1,0.1-0.1,0.2-0.2c0.1-0.1,0.1-0.1,0.2-0.2
		c0.1-0.1,0.2-0.1,0.2-0.2c0.1-0.1,0.1-0.1,0.2-0.2c0.1-0.1,0.2-0.2,0.3-0.2c0.1-0.1,0.2-0.1,0.2-0.2c0.1-0.1,0.2-0.1,0.3-0.2
		c0.1-0.1,0.2-0.1,0.3-0.2c0.1-0.1,0.2-0.1,0.3-0.2c0.1-0.1,0.2-0.1,0.3-0.2c0.1-0.1,0.2-0.1,0.3-0.2c0.1-0.1,0.2-0.1,0.3-0.2
		c0.1-0.1,0.2-0.1,0.4-0.2c0.1,0,0.2-0.1,0.3-0.1c0.1,0,0.2-0.1,0.4-0.1C37.7,3,37.8,3,37.9,3c0.1,0,0.3-0.1,0.4-0.1
		c0.1,0,0.2,0,0.4-0.1c0.1,0,0.3,0,0.4-0.1c0.1,0,0.3,0,0.4,0c0.2,0,0.4,0,0.6,0c0.4,0,0.8,0.1,1.2,0.1c0,0,0.1,0,0.1,0
		c0.3,0.1,0.6,0.1,0.9,0.2c0,0,0.1,0,0.1,0c0.3,0.1,0.5,0.2,0.8,0.3c0,0,0.1,0,0.1,0.1c0.2,0.1,0.4,0.2,0.6,0.3c0,0,0.1,0,0.1,0.1
		c0.2,0.1,0.4,0.2,0.5,0.3c0,0,0,0,0.1,0c0.3,0.3,0.6,0.5,0.7,0.7c0,0,0,0,0,0c0.1,0.1,0.2,0.2,0.2,0.3v83.4c0,0,0,0,0,0
		C45.5,88.7,45.4,88.7,45.4,88.8z"/>
	<path class="st0" d="M43.2,57.6c0-2.6-1.8-4.7-4.3-5.2V41.9h-5.5V26.4c2.3-0.5,4-2.4,4-4.9c0-2.8-2.3-5-5-5c-2.8,0-5,2.3-5,5
		c0,2.4,1.8,4.4,4,4.9v15.5h-4.7c-0.4-2.5-2.6-4.3-5.2-4.3c-2.9,0-5.2,2.3-5.2,5.2c0,2.9,2.4,5.2,5.2,5.2c2.6,0,4.6-1.8,5.1-4.2
		h10.3v8.5c-2.4,0.5-4.2,2.6-4.2,5.2c0,2.6,1.8,4.7,4.2,5.1v7.5c-2.4,0.5-4.2,2.6-4.2,5.2c0,2.9,2.4,5.2,5.2,5.2
		c2.9,0,5.2-2.3,5.2-5.2c0-2.6-1.8-4.7-4.3-5.2v-7.5C41.3,62.3,43.2,60.2,43.2,57.6z M37.9,72c1.9,0,3.5,1.6,3.5,3.5
		S39.8,79,37.9,79s-3.5-1.6-3.5-3.5S36,72,37.9,72z M21.5,46.4c-1.9,0-3.5-1.6-3.5-3.5s1.6-3.5,3.5-3.5S25,41,25,42.9
		S23.4,46.4,21.5,46.4z M37.9,61.2c-1.9,0-3.5-1.6-3.5-3.5s1.6-3.5,3.5-3.5s3.5,1.6,3.5,3.5S39.8,61.2,37.9,61.2z M32.4,25.1
		c-1.9,0-3.5-1.6-3.5-3.5s1.6-3.5,3.5-3.5c2,0,3.5,1.5,3.5,3.5C35.9,23.5,34.3,25.1,32.4,25.1z"/>
</g>
</svg>
